<svg xmlns="http://www.w3.org/2000/svg" viewBox="0 0 512 512" role="img" aria-label="童邻市集">
  <defs>
    <linearGradient id="bg" x1="72" y1="52" x2="440" y2="460" gradientUnits="userSpaceOnUse">
      <stop offset="0" stop-color="#fff4bf"/>
      <stop offset="0.44" stop-color="#9fc8ae"/>
      <stop offset="1" stop-color="#1f3a30"/>
    </linearGradient>
    <linearGradient id="sun" x1="123" y1="85" x2="255" y2="225" gradientUnits="userSpaceOnUse">
      <stop offset="0" stop-color="#fffdf5"/>
      <stop offset="1" stop-color="#f2c86d"/>
    </linearGradient>
    <filter id="shadow" x="-20%" y="-20%" width="140%" height="150%">
      <feDropShadow dx="0" dy="18" stdDeviation="18" flood-color="#173026" flood-opacity="0.26"/>
    </filter>
  </defs>
  <rect width="512" height="512" rx="116" fill="url(#bg)"/>
  <circle cx="155" cy="145" r="72" fill="url(#sun)" opacity="0.96"/>
  <path d="M116 323c50-77 108-116 174-116 52 0 94 24 126 73 15 23 23 50 25 81H72c7-14 22-27 44-38Z" fill="#fffaf3" opacity="0.92"/>
  <path d="M139 324c36-43 77-65 123-65 34 0 64 12 91 36 19 17 32 38 40 63H114c5-12 13-24 25-34Z" fill="#eaf4ec"/>
  <g filter="url(#shadow)">
    <rect x="118" y="288" width="276" height="106" rx="38" fill="#fffdf8"/>
    <path d="M170 353h172" stroke="#87aa95" stroke-width="18" stroke-linecap="round"/>
    <path d="M196 326h120" stroke="#eadb9d" stroke-width="18" stroke-linecap="round"/>
  </g>
  <text x="256" y="455" text-anchor="middle" font-family="Songti SC, STSong, serif" font-size="58" font-weight="800" fill="#fffdf8" letter-spacing="2">童邻</text>
</svg>
